<svg width="24" height="24" viewBox="0 0 24 24" fill="none" xmlns="http://www.w3.org/2000/svg">
<path d="M12 12C7.49 12 4 10.5 4 10.5V20.5C4 20.5 7.24 22 12 22C16.76 22 20 20.5 20 20.5V10.5C20 10.5 16.51 12 12 12ZM18 19C18 19 15.29 20 12 20C8.71 20 6 19 6 19V13.25C6 13.25 8.77 14 12 14C15.23 14 18 13.25 18 13.25V19ZM12 2C9.79 2 8 3.8 8 6C8 8.21 9.79 10 12 10C14.21 10 16 8.21 16 6C16 3.8 14.21 2 12 2ZM12 8C10.9 8 10 7.1 10 6C10 4.9 10.9 4 12 4C13.1 4 14 4.9 14 6C14 7.1 13.1 8 12 8Z" fill="black"/>
</svg>
