<svg width="32" height="32" viewBox="0 0 32 32" fill="none" xmlns="http://www.w3.org/2000/svg">
<circle cx="16.0003" cy="16.0001" r="13.3333" fill="#181717"/>
<path d="M4.54297 22.8234C6.16606 25.5426 8.72994 27.6351 11.7855 28.6524C12.4526 28.7743 12.6957 28.3626 12.6957 28.009C12.6957 27.8626 12.6932 27.6039 12.6899 27.2578C12.6861 26.8569 12.6812 26.3387 12.6777 25.7417C8.96893 26.5471 8.18642 23.9541 8.18642 23.9541C7.57989 22.4144 6.70571 22.0043 6.70571 22.0043C5.49512 21.1768 6.79739 21.1932 6.79739 21.1932C8.13567 21.2881 8.8396 22.5675 8.8396 22.5675C10.0289 24.6048 11.9606 24.0163 12.7202 23.6758C12.8414 22.8139 13.1851 22.2262 13.5666 21.893C10.606 21.5566 7.49313 20.4123 7.49313 15.3031C7.49313 13.8478 8.01289 12.6576 8.86579 11.7253C8.72828 11.3881 8.27073 10.0326 8.99594 8.19667C8.99594 8.19667 10.1157 7.83816 12.6629 9.5636C13.7262 9.26812 14.8672 9.11996 16.0009 9.11505C17.1329 9.11996 18.2739 9.26812 19.3388 9.5636C21.8844 7.83816 23.0017 8.19667 23.0017 8.19667C23.7294 10.0326 23.2718 11.3881 23.1343 11.7253C23.9888 12.6576 24.5053 13.8478 24.5053 15.3031C24.5053 20.4254 21.3876 21.5525 18.4171 21.8824C18.896 22.2941 19.3224 23.1077 19.3224 24.3519C19.3224 25.5436 19.3151 26.5815 19.3103 27.2691C19.3079 27.6096 19.3061 27.8642 19.3061 28.009C19.3061 28.3659 19.5459 28.7809 20.2228 28.6507C22.6569 27.8382 24.7787 26.3437 26.3608 24.3936C23.9163 27.4073 20.1833 29.3334 16.0005 29.3334C11.1302 29.3334 6.86984 26.7222 4.54297 22.8234Z" fill="white"/>
</svg>
