<svg width="48" height="48" viewBox="0 0 48 48" fill="none" xmlns="http://www.w3.org/2000/svg">
<ellipse cx="23.9323" cy="24" rx="19.9435" ry="20" fill="#181717"/>
<path d="M6.79443 34.235C9.22219 38.3138 13.0572 41.4526 17.6275 42.9784C18.6253 43.1614 18.9889 42.5438 18.9889 42.0134C18.9889 41.7938 18.9853 41.4058 18.9803 40.8866C18.9746 40.2852 18.9673 39.5079 18.962 38.6124C13.4146 39.8206 12.2442 35.931 12.2442 35.931C11.337 33.6215 10.0294 33.0064 10.0294 33.0064C8.21862 31.7651 10.1665 31.7896 10.1665 31.7896C12.1683 31.9321 13.2212 33.8511 13.2212 33.8511C15.0001 36.9071 17.8895 36.0243 19.0257 35.5135C19.2069 34.2207 19.7211 33.3391 20.2916 32.8394C15.8633 32.3348 11.2072 30.6183 11.2072 22.9545C11.2072 20.7715 11.9846 18.9863 13.2604 17.5879C13.0547 17.082 12.3703 15.0488 13.455 12.2949C13.455 12.2949 15.1299 11.7571 18.94 14.3453C20.5303 13.9021 22.237 13.6798 23.9327 13.6725C25.6259 13.6798 27.3326 13.9021 28.9255 14.3453C32.7331 11.7571 34.4043 12.2949 34.4043 12.2949C35.4927 15.0488 34.8083 17.082 34.6026 17.5879C35.8808 18.9863 36.6534 20.7715 36.6534 22.9545C36.6534 30.638 31.9899 32.3286 27.5469 32.8234C28.2631 33.441 28.901 34.6614 28.901 36.5277C28.901 38.3152 28.89 39.8722 28.8828 40.9035C28.8792 41.4143 28.8765 41.7962 28.8765 42.0134C28.8765 42.5487 29.2352 43.1712 30.2477 42.976C33.8886 41.7572 37.0623 39.5154 39.4288 36.5903C35.7723 41.1108 30.1886 44 23.9321 44C16.6474 44 10.2749 40.0832 6.79443 34.235Z" fill="white"/>
</svg>
