<svg width="32" height="32" viewBox="0 0 32 32" fill="none" xmlns="http://www.w3.org/2000/svg">
<rect width="32" height="32" rx="16" fill="white"/>
<path fill-rule="evenodd" clip-rule="evenodd" d="M25.8727 16.2364C25.8727 15.4989 25.8065 14.7899 25.6836 14.1091H15.8887V18.132H21.4858C21.2447 19.432 20.5119 20.5335 19.4105 21.2709V23.8804H22.7716C24.7381 22.0699 25.8727 19.4037 25.8727 16.2364Z" fill="#4285F4"/>
<path fill-rule="evenodd" clip-rule="evenodd" d="M15.8885 26.4001C18.6965 26.4001 21.0507 25.4688 22.7714 23.8804L19.4104 21.271C18.4791 21.895 17.2878 22.2637 15.8885 22.2637C13.1798 22.2637 10.8871 20.4343 10.0693 17.9761H6.59473V20.6706C8.306 24.0695 11.8231 26.4001 15.8885 26.4001Z" fill="#34A853"/>
<path fill-rule="evenodd" clip-rule="evenodd" d="M10.069 17.9761C9.86101 17.3521 9.74283 16.6856 9.74283 16.0001C9.74283 15.3147 9.86101 14.6481 10.069 14.0241V11.3296H6.59446C5.8901 12.7336 5.48828 14.322 5.48828 16.0001C5.48828 17.6783 5.8901 19.2667 6.59446 20.6707L10.069 17.9761Z" fill="#FBBC05"/>
<path fill-rule="evenodd" clip-rule="evenodd" d="M15.8885 9.73646C17.4155 9.73646 18.7864 10.2612 19.8642 11.2917L22.8471 8.30882C21.046 6.63064 18.6918 5.6001 15.8885 5.6001C11.8231 5.6001 8.306 7.93064 6.59473 11.3296L10.0693 14.0241C10.8871 11.5659 13.1798 9.73646 15.8885 9.73646Z" fill="#EA4335"/>
</svg>
