<svg width="30" height="29" viewBox="0 0 30 29" fill="none" xmlns="http://www.w3.org/2000/svg">
<path fill-rule="evenodd" clip-rule="evenodd" d="M25.9617 14.7073C28.2136 15.8169 29.9999 17.4696 29.9999 19.5635C29.9999 21.1858 28.9094 22.552 27.4017 23.5784C25.8876 24.609 23.8181 25.4006 21.469 25.9068L20.8037 23.6409C22.9 23.1892 24.5805 22.5146 25.705 21.749C26.8359 20.9792 27.2727 20.2192 27.2727 19.5635C27.2727 18.7133 26.5227 17.6791 24.602 16.7326L25.9617 14.7073Z" fill="black"/>
<path fill-rule="evenodd" clip-rule="evenodd" d="M14.9995 3.20782C13.1912 3.20782 11.4569 3.82325 10.1783 4.91869C8.89966 6.01412 8.18136 7.49984 8.18136 9.04904C8.18136 12.1656 9.97806 14.514 11.8708 16.1288C12.8144 16.9338 13.7615 17.5376 14.472 17.9392C14.6687 18.0503 14.8463 18.1455 14.9995 18.2246C15.1527 18.1455 15.3303 18.0503 15.527 17.9392C16.2375 17.5376 17.1847 16.9338 18.1282 16.1288C20.0209 14.514 21.8176 12.1656 21.8176 9.04904C21.8176 7.49984 21.0993 6.01412 19.8207 4.91869C18.5421 3.82325 16.8078 3.20782 14.9995 3.20782ZM14.9995 19.5632C14.3978 20.6116 14.3973 20.6114 14.3968 20.6112L14.3955 20.6106L14.3924 20.6093L14.3841 20.6058L14.3585 20.5947C14.3376 20.5856 14.3091 20.5731 14.2735 20.557C14.2023 20.525 14.1025 20.479 13.9783 20.419C13.7301 20.2992 13.3831 20.1228 12.9702 19.8895C12.1467 19.424 11.0483 18.7245 9.9464 17.7844C7.74829 15.9091 5.4541 13.0004 5.4541 9.04904C5.4541 6.88019 6.45971 4.80017 8.24984 3.26654C10.0399 1.73293 12.4679 0.871338 14.9995 0.871338C17.5311 0.871338 19.9591 1.73293 21.7492 3.26654C23.5393 4.80017 24.5449 6.88019 24.5449 9.04904C24.5449 13.0004 22.2507 15.9091 20.0526 17.7844C18.9507 18.7245 17.8523 19.424 17.0288 19.8895C16.6159 20.1228 16.2689 20.2992 16.0207 20.419C15.8965 20.479 15.7967 20.525 15.7255 20.557C15.6899 20.5731 15.6614 20.5856 15.6405 20.5947L15.6149 20.6058L15.6066 20.6093L15.6035 20.6106L15.6022 20.6112C15.6017 20.6114 15.6012 20.6116 14.9995 19.5632ZM14.9995 19.5632L15.6012 20.6116C15.2217 20.7714 14.7773 20.7714 14.3978 20.6116L14.9995 19.5632ZM15.6036 18.5159C15.6038 18.516 15.6038 18.516 15.6036 18.5159L15.6036 18.5159Z" fill="black"/>
<path d="M14.9997 10.8016C16.5059 10.8016 17.727 9.75555 17.727 8.46515C17.727 7.17474 16.5059 6.12866 14.9997 6.12866C13.4935 6.12866 12.2725 7.17474 12.2725 8.46515C12.2725 9.75555 13.4935 10.8016 14.9997 10.8016Z" fill="black"/>
<path fill-rule="evenodd" clip-rule="evenodd" d="M5.4083 16.7342C3.47517 17.6806 2.72726 18.7147 2.72726 19.5634C2.72726 20.4943 3.64505 21.6528 5.96889 22.6482C8.2107 23.6085 11.4023 24.2364 14.9999 24.2364V26.5729C11.0703 26.5729 7.44375 25.8923 4.74923 24.738C2.13674 23.619 0 21.8568 0 19.5634C0 17.4681 1.78836 15.8153 4.0552 14.7056L5.4083 16.7342Z" fill="black"/>
<path d="M12.9541 28.9091V21.8997L18.4086 25.4044L12.9541 28.9091Z" fill="black"/>
</svg>
