<svg width="27" height="28" viewBox="0 0 27 28" fill="none" xmlns="http://www.w3.org/2000/svg">
<path fill-rule="evenodd" clip-rule="evenodd" d="M4.66682 4.81988C4.65209 4.81907 4.63756 4.82138 4.62452 4.82628C4.61181 4.83107 4.59976 4.8386 4.58922 4.84893C3.56128 5.86575 2.8804 7.17184 2.64103 8.58618C2.40177 9.99986 2.61547 11.4517 3.25241 12.7407C4.48153 15.193 6.11837 17.4263 8.09542 19.3483L8.10459 19.3572C10.0646 21.3018 12.3402 22.912 14.8379 24.1217C16.1464 24.7487 17.6211 24.9582 19.0565 24.721C20.4928 24.4837 21.8179 23.811 22.8463 22.7969L23.7478 23.6812L22.8438 22.7995C22.8533 22.79 22.8612 22.7782 22.8666 22.7642C22.8719 22.7503 22.8739 22.7361 22.873 22.7228C22.8722 22.7089 22.8683 22.6951 22.8615 22.6824C22.8549 22.67 22.8455 22.6589 22.8342 22.6502L22.821 22.64L19.6786 20.1475C19.4252 19.96 19.1188 19.8546 18.8016 19.8461C18.4799 19.8376 18.1635 19.9292 17.8979 20.1078C17.8829 20.1178 17.8677 20.1275 17.8524 20.137L17.182 20.5475C16.4895 20.9781 15.6793 21.1897 14.8606 21.1537C14.0403 21.1176 13.2506 20.8346 12.5989 20.3429L12.5964 20.341C11.6664 19.6357 10.7843 18.8716 9.9557 18.0535C9.85398 17.998 9.75875 17.928 9.67327 17.8439C8.74001 16.9257 7.87231 15.9453 7.07622 14.9098L7.07349 14.9063C6.58274 14.2632 6.30226 13.4888 6.26906 12.6855C6.23586 11.8824 6.45126 11.0881 6.88742 10.4079L6.89179 10.401L7.38324 9.64542C7.54243 9.39082 7.61865 9.09439 7.60159 8.79604C7.5845 8.4971 7.47439 8.21014 7.28607 7.97412L4.7406 4.85747C4.73135 4.84604 4.72019 4.83712 4.70788 4.83086C4.6953 4.82446 4.68135 4.82068 4.66682 4.81988ZM11.1503 15.7501C11.2602 15.8097 11.3624 15.8861 11.453 15.9788C12.2908 16.8361 13.1921 17.6312 14.1494 18.3573C14.3871 18.5363 14.6751 18.6395 14.9744 18.6526C15.2738 18.6658 15.5703 18.5882 15.8236 18.4302L15.8322 18.4249L16.4856 18.0247C17.1889 17.5592 18.0228 17.3209 18.8706 17.3435C19.7284 17.3664 20.5568 17.6551 21.2378 18.1684C21.2461 18.1747 21.2544 18.1811 21.2625 18.1876L24.4137 20.6868C24.704 20.9126 24.9431 21.1959 25.1152 21.5182C25.2888 21.8432 25.3907 22.2008 25.4138 22.5676C25.437 22.9349 25.3806 23.3021 25.2494 23.6452C25.1183 23.9883 24.9149 24.301 24.6513 24.5624L23.7478 23.6812L24.6487 24.5649C23.2455 25.9485 21.4378 26.8662 19.4783 27.19C17.5188 27.5138 15.5056 27.2274 13.7197 26.3708L13.7154 26.3687C10.9654 25.0371 8.45967 23.2648 6.30115 21.1243C6.30268 21.1258 6.30421 21.1273 6.30574 21.1288L7.20058 20.2386L6.29661 21.1198C6.29813 21.1213 6.29964 21.1228 6.30115 21.1243C4.12375 19.0065 2.32108 16.546 0.96745 13.8444L0.96461 13.8388C0.095489 12.0818 -0.196305 10.1025 0.12989 8.17513C0.456083 6.24778 1.38408 4.46806 2.78501 3.08273L3.6875 3.96542L2.78604 3.08171C3.04912 2.82216 3.36525 2.61963 3.71447 2.48817C4.06346 2.35679 4.4366 2.29976 4.8089 2.32022C5.18141 2.3407 5.54549 2.43834 5.87723 2.60706C6.20824 2.7754 6.49875 3.01033 6.73051 3.29603L9.28134 6.41924C9.79536 7.0595 10.0967 7.84035 10.1433 8.6555C10.1899 9.47039 9.97973 10.2795 9.5418 10.9726L9.53305 10.9865L9.03891 11.7461C8.87935 11.9963 8.80043 12.2882 8.81264 12.5838C8.82487 12.8797 8.92798 13.1649 9.10834 13.4019C9.74073 14.2243 10.4226 15.0084 11.1503 15.7501Z" fill="#44475C"/>
<path fill-rule="evenodd" clip-rule="evenodd" d="M15.2324 6.35645C16.8157 6.35645 18.334 6.97507 19.4535 8.07602C20.573 9.17699 21.202 10.6702 21.202 12.2273H18.6563C18.6563 11.3343 18.2955 10.4778 17.6534 9.8463C17.0112 9.21477 16.1404 8.86 15.2324 8.86V6.35645Z" fill="#44475C"/>
<path fill-rule="evenodd" clip-rule="evenodd" d="M15.2324 0.960938C18.2707 0.960938 21.1843 2.14789 23.3326 4.26067C25.4809 6.37342 26.688 9.23897 26.688 12.2269H24.1423C24.1423 9.90304 23.2035 7.67426 21.5325 6.03095C19.8616 4.38766 17.5955 3.46449 15.2324 3.46449V0.960938Z" fill="#44475C"/>
</svg>
