<svg width="32" height="32" viewBox="0 0 32 32" fill="none" xmlns="http://www.w3.org/2000/svg">
<path d="M22.8658 2.00073H9.42533C5.71216 2.00073 2.69141 5.12839 2.69141 8.97298V21.7042C2.69141 25.5488 5.71216 28.6765 9.42533 28.6765H22.8658C26.5789 28.6765 29.5997 25.5488 29.5997 21.7042V8.97298C29.5997 5.12839 26.5789 2.00073 22.8658 2.00073ZM5.06692 8.97298C5.06692 6.48503 7.02242 4.46032 9.42533 4.46032H22.8658C25.2687 4.46032 27.2242 6.48503 27.2242 8.97298V21.7042C27.2242 24.1922 25.2687 26.2169 22.8658 26.2169H9.42533C7.02242 26.2169 5.06692 24.1922 5.06692 21.7042V8.97298Z" fill="#A434A5"/>
<path d="M15.999 21.6494C19.452 21.6494 22.2627 18.7408 22.2627 15.1641C22.2627 11.5874 19.4535 8.67871 15.999 8.67871C12.5446 8.67871 9.73535 11.5874 9.73535 15.1641C9.73535 18.7408 12.5446 21.6494 15.999 21.6494ZM15.999 11.1399C18.1432 11.1399 19.8872 12.9456 19.8872 15.1657C19.8872 17.3857 18.1432 19.1914 15.999 19.1914C13.8548 19.1914 12.1109 17.3857 12.1109 15.1657C12.1109 12.9456 13.8548 11.1399 15.999 11.1399Z" fill="#A434A5"/>
<path d="M22.9894 9.89957C23.9192 9.89957 24.6771 9.11648 24.6771 8.15218C24.6771 7.18788 23.9208 6.40479 22.9894 6.40479C22.0581 6.40479 21.3018 7.18788 21.3018 8.15218C21.3018 9.11648 22.0581 9.89957 22.9894 9.89957Z" fill="#A434A5"/>
</svg>
