<svg width="24" height="24" viewBox="0 0 24 24" fill="none" xmlns="http://www.w3.org/2000/svg">
<path d="M11 18C12.9333 18 14.5833 17.3208 15.95 15.9625C17.3167 14.6042 18 12.95 18 11C18 9.06667 17.3167 7.41667 15.95 6.05C14.5833 4.68333 12.9333 4 11 4C9.05 4 7.39583 4.68333 6.0375 6.05C4.67917 7.41667 4 9.06667 4 11C4 12.95 4.67917 14.6042 6.0375 15.9625C7.39583 17.3208 9.05 18 11 18ZM11 13.5C11.7 13.5 12.2917 13.2625 12.775 12.7875C13.2583 12.3125 13.5 11.7167 13.5 11C13.5 10.3 13.2583 9.70833 12.775 9.225C12.2917 8.74167 11.7 8.5 11 8.5C10.2833 8.5 9.6875 8.74167 9.2125 9.225C8.7375 9.70833 8.5 10.3 8.5 11C8.5 11.7167 8.7375 12.3125 9.2125 12.7875C9.6875 13.2625 10.2833 13.5 11 13.5ZM11 15C9.8 15 8.6875 14.6792 7.6625 14.0375C6.6375 13.3958 5.83333 12.5417 5.25 11.475C5.16667 11.325 5.125 11.1667 5.125 11C5.125 10.8333 5.16667 10.675 5.25 10.525C5.83333 9.45833 6.6375 8.60417 7.6625 7.9625C8.6875 7.32083 9.8 7 11 7C12.2 7 13.3083 7.325 14.325 7.975C15.3417 8.625 16.1417 9.475 16.725 10.525C16.8083 10.675 16.85 10.8333 16.85 11C16.85 11.1667 16.8083 11.325 16.725 11.475C16.1417 12.5417 15.3417 13.3958 14.325 14.0375C13.3083 14.6792 12.2 15 11 15ZM11 12.5C11.4167 12.5 11.7708 12.3583 12.0625 12.075C12.3542 11.7917 12.5 11.4333 12.5 11C12.5 10.5833 12.3542 10.2292 12.0625 9.9375C11.7708 9.64583 11.4167 9.5 11 9.5C10.5667 9.5 10.2083 9.64583 9.925 9.9375C9.64167 10.2292 9.5 10.5833 9.5 11C9.5 11.4333 9.64167 11.7917 9.925 12.075C10.2083 12.3583 10.5667 12.5 11 12.5ZM11 20C9.75 20 8.57917 19.7625 7.4875 19.2875C6.39583 18.8125 5.44583 18.1708 4.6375 17.3625C3.82917 16.5542 3.1875 15.6042 2.7125 14.5125C2.2375 13.4208 2 12.25 2 11C2 9.76667 2.2375 8.60417 2.7125 7.5125C3.1875 6.42083 3.82917 5.46667 4.6375 4.65C5.44583 3.83333 6.39583 3.1875 7.4875 2.7125C8.57917 2.2375 9.75 2 11 2C12.2333 2 13.3958 2.2375 14.4875 2.7125C15.5792 3.1875 16.5333 3.83333 17.35 4.65C18.1667 5.46667 18.8125 6.42083 19.2875 7.5125C19.7625 8.60417 20 9.76667 20 11C20 12.0667 19.825 13.075 19.475 14.025C19.125 14.975 18.6417 15.8417 18.025 16.625L21.3 19.9C21.5 20.1 21.5958 20.3333 21.5875 20.6C21.5792 20.8667 21.475 21.1 21.275 21.3C21.075 21.4833 20.8417 21.575 20.575 21.575C20.3083 21.575 20.075 21.4833 19.875 21.3L16.6 18.05C15.8167 18.6667 14.95 19.1458 14 19.4875C13.05 19.8292 12.05 20 11 20Z" fill="black"/>
</svg>
