<svg width="38" height="40" viewBox="0 0 38 40" fill="none" xmlns="http://www.w3.org/2000/svg">
<path d="M19.5643 1.49237L23.1476 13.9968C23.332 14.6402 23.9203 15.0836 24.5896 15.0836H36.4277C36.8968 15.0836 37.1077 15.6713 36.7456 15.9695L26.9611 24.03C26.5001 24.4097 26.3084 25.0268 26.4729 25.6009L30.1581 38.4609C30.2933 38.9328 29.7384 39.2967 29.3595 38.9846L20.0374 31.3051C19.4835 30.8487 18.6839 30.8487 18.1299 31.3051L8.80783 38.9846C8.42891 39.2967 7.87402 38.9329 8.00926 38.4609L11.6944 25.6009C11.859 25.0268 11.6672 24.4097 11.2062 24.03L1.42169 15.9695C1.05966 15.6713 1.27055 15.0836 1.7396 15.0836H13.5778C14.247 15.0836 14.8354 14.6402 15.0197 13.9968L18.603 1.49237C18.7414 1.00936 19.4259 1.00936 19.5643 1.49237Z" fill="white" stroke="#444444"/>
</svg>
