<svg width="38" height="40" viewBox="0 0 38 40" fill="none" xmlns="http://www.w3.org/2000/svg">
<path d="M19.3143 1.49237L22.8976 13.9968C23.082 14.6402 23.6703 15.0836 24.3396 15.0836H36.1777C36.6468 15.0836 36.8577 15.6713 36.4956 15.9695L26.7111 24.03C26.2501 24.4097 26.0584 25.0268 26.2229 25.6009L29.9081 38.4609C30.0433 38.9328 29.4884 39.2967 29.1095 38.9846L19.7874 31.3051C19.2334 30.8487 18.4339 30.8487 17.8799 31.3051L8.55783 38.9846C8.17891 39.2967 7.62402 38.9329 7.75926 38.4609L11.4444 25.6009C11.609 25.0268 11.4172 24.4097 10.9562 24.03L1.17169 15.9695C0.809657 15.6713 1.02054 15.0836 1.4896 15.0836H13.3278C13.997 15.0836 14.5853 14.6402 14.7697 13.9968L18.353 1.49237C18.4914 1.00936 19.1759 1.00936 19.3143 1.49237Z" fill="white" stroke="#444444"/>
</svg>
