<svg width="38" height="40" viewBox="0 0 38 40" fill="none" xmlns="http://www.w3.org/2000/svg">
<path d="M19.6473 1.49237L23.2306 13.9968C23.415 14.6402 24.0033 15.0836 24.6726 15.0836H36.5107C36.9798 15.0836 37.1907 15.6713 36.8286 15.9695L27.0441 24.03C26.5831 24.4097 26.3914 25.0268 26.5559 25.6009L30.2411 38.4609C30.3763 38.9328 29.8214 39.2967 29.4425 38.9846L20.1204 31.3051C19.5665 30.8487 18.7669 30.8487 18.2129 31.3051L8.89083 38.9846C8.51192 39.2967 7.95703 38.9329 8.09227 38.4609L11.7774 25.6009C11.942 25.0268 11.7502 24.4097 11.2892 24.03L1.5047 15.9695C1.14266 15.6713 1.35355 15.0836 1.82261 15.0836H13.6608C14.33 15.0836 14.9184 14.6402 15.1027 13.9968L18.686 1.49237C18.8244 1.00936 19.5089 1.00936 19.6473 1.49237Z" fill="white" stroke="#444444"/>
</svg>
