<svg width="38" height="40" viewBox="0 0 38 40" fill="none" xmlns="http://www.w3.org/2000/svg">
<path d="M19.3973 1.49237L22.9806 13.9968C23.165 14.6402 23.7533 15.0836 24.4226 15.0836H36.2607C36.7298 15.0836 36.9407 15.6713 36.5786 15.9695L26.7941 24.03C26.3331 24.4097 26.1414 25.0268 26.3059 25.6009L29.9911 38.4609C30.1263 38.9328 29.5714 39.2967 29.1925 38.9846L19.8704 31.3051C19.3165 30.8487 18.5169 30.8487 17.9629 31.3051L8.64083 38.9846C8.26192 39.2967 7.70703 38.9329 7.84227 38.4609L11.5274 25.6009C11.692 25.0268 11.5002 24.4097 11.0392 24.03L1.25469 15.9695C0.892664 15.6713 1.10355 15.0836 1.57261 15.0836H13.4108C14.08 15.0836 14.6684 14.6402 14.8527 13.9968L18.436 1.49237C18.5744 1.00936 19.2589 1.00936 19.3973 1.49237Z" fill="white" stroke="#444444"/>
</svg>
