<svg width="38" height="40" viewBox="0 0 38 40" fill="none" xmlns="http://www.w3.org/2000/svg">
<path d="M19.4803 1.49237L23.0636 13.9968C23.248 14.6402 23.8363 15.0836 24.5056 15.0836H36.3437C36.8128 15.0836 37.0237 15.6713 36.6616 15.9695L26.8771 24.03C26.4161 24.4097 26.2244 25.0268 26.3889 25.6009L30.0741 38.4609C30.2093 38.9328 29.6544 39.2967 29.2755 38.9846L19.9534 31.3051C19.3995 30.8487 18.5999 30.8487 18.0459 31.3051L8.72384 38.9846C8.34493 39.2967 7.79004 38.9328 7.92528 38.4609L11.6104 25.6009C11.775 25.0268 11.5832 24.4097 11.1222 24.03L1.3377 15.9695C0.975672 15.6713 1.18656 15.0836 1.65562 15.0836H13.4938C14.1631 15.0836 14.7514 14.6402 14.9357 13.9968L18.519 1.49237C18.6574 1.00936 19.3419 1.00936 19.4803 1.49237Z" fill="white" stroke="#444444"/>
</svg>
